<?xml version="1.0" encoding="utf-8"?>
<!-- Generator: Adobe Illustrator 23.0.2, SVG Export Plug-In . SVG Version: 6.00 Build 0)  -->
<svg version="1.1" id="Layer_1" xmlns="http://www.w3.org/2000/svg" xmlns:xlink="http://www.w3.org/1999/xlink" x="0px" y="0px"
	 viewBox="0 0 547.9 83.4" style="enable-background:new 0 0 547.9 83.4;" xml:space="preserve">
<style type="text/css">
	.st0{fill:#00549E;}
	.st1{fill:none;stroke:#EE7D35;stroke-width:0.6156;}
	.st2{fill:#F78E1E;}
</style>
<g>
	<path class="st0" d="M108.4,57V8.2h11.3v18.9h35.5V8.2h11.5V57h-11.5V36h-35.5v21H108.4z"/>
	<path class="st0" d="M173.3,57L201,8.2h11L240,57h-12.8l-5.9-10.7h-31L184.7,57H173.3z M195.2,37.4h21.4l-10.5-19.8L195.2,37.4z"/>
	<path class="st0" d="M256.5,57L228.3,8.2h13L261,43.5l18.8-35.3h11.4L264.3,57H256.5z"/>
	<path class="st0" d="M327.2,16.9V57h-11.3V16.9h-22.5V8.2h56.3v8.7H327.2z"/>
	<path class="st0" d="M358.4,57V8.2h50v8.4h-38.6v10.7h22.5v8.4h-22.5v12.2h39.1V57H358.4z"/>
	<path class="st0" d="M460.8,16.9h-30.6v30.9h30.6V37.3l11.3,0v8.2c0,4.5-0.8,7.6-2.5,9.2c-1.7,1.6-4.9,2.4-9.5,2.4H431
		c-4.7,0-7.8-0.8-9.5-2.4c-1.7-1.6-2.5-4.6-2.5-9.2V19.7c0-4.5,0.8-7.6,2.5-9.2c1.7-1.6,4.9-2.4,9.5-2.4h29.1c4.7,0,7.8,0.8,9.5,2.4
		c1.7,1.6,2.5,4.6,2.5,9.2v6.4l-11.3,0V16.9z"/>
	<path class="st0" d="M485.7,57V8.2H497v18.9h35.5V8.2H544V57h-11.5V36H497v21H485.7z"/>
</g>
<g>
	<path class="st0" d="M109.8,83.4v-9.8h2.2v9.8H109.8z"/>
	<path class="st0" d="M115.9,83.4v-8h1.3l6.6,5.3v-5.3h1.7v8h-1.3l-6.6-5.4v5.4H115.9z"/>
	<path class="st0" d="M128.8,83.4v-8h1.3l6.6,5.3v-5.3h1.7v8h-1.3l-6.6-5.4v5.4H128.8z"/>
	<path class="st0" d="M141.5,77.3c0-0.8,0.1-1.3,0.4-1.5c0.3-0.3,0.8-0.4,1.6-0.4h6c0.8,0,1.3,0.1,1.6,0.4c0.3,0.3,0.4,0.8,0.4,1.5
		v4.2c0,0.7-0.1,1.2-0.4,1.5c-0.3,0.3-0.8,0.4-1.6,0.4h-6c-0.8,0-1.3-0.1-1.6-0.4c-0.3-0.3-0.4-0.8-0.4-1.5V77.3z M143.4,81.9h6.2
		v-5h-6.2V81.9z"/>
	<path class="st0" d="M158.3,83.4l-4.7-8h2.1l3.3,5.8l3.1-5.8h2l-4.5,8H158.3z"/>
	<path class="st0" d="M164.9,83.4l4.6-8h1.8l4.7,8h-2.1l-1-1.8h-5.1l-1,1.8H164.9z M168.5,80.2h3.6l-1.8-3.3L168.5,80.2z"/>
	<path class="st0" d="M182.3,76.9v6.6h-1.9v-6.6h-3.7v-1.4h9.4v1.4H182.3z"/>
	<path class="st0" d="M188.4,83.4v-8h1.9v8H188.4z"/>
	<path class="st0" d="M197.1,83.4l-4.7-8h2.1l3.3,5.8l3.1-5.8h2l-4.5,8H197.1z"/>
	<path class="st0" d="M204.9,83.4v-8h8.3v1.4h-6.4v1.7h3.7V80h-3.7v2h6.5v1.5H204.9z"/>
	<path class="st0" d="M231.7,75.4h-6.2v2.1h5.9c0.9,0,1.5,0.2,1.9,0.5c0.3,0.3,0.5,0.9,0.5,1.8v1.3c0,0.9-0.2,1.5-0.5,1.8
		c-0.3,0.3-1,0.5-1.9,0.5h-5.9c-0.9,0-1.5-0.2-1.9-0.5c-0.3-0.3-0.5-0.9-0.5-1.8v-0.3l1.9-0.4v1.2h6.7v-2.2H226
		c-0.9,0-1.5-0.2-1.9-0.5c-0.3-0.3-0.5-0.9-0.5-1.8V76c0-0.9,0.2-1.5,0.5-1.8c0.3-0.3,0.9-0.5,1.9-0.5h5.4c0.9,0,1.5,0.2,1.8,0.5
		c0.3,0.3,0.5,0.9,0.5,1.7V76l-2,0.5V75.4z"/>
	<path class="st0" d="M237.3,77.3c0-0.8,0.1-1.3,0.4-1.5c0.3-0.3,0.8-0.4,1.6-0.4h6c0.8,0,1.3,0.1,1.6,0.4c0.3,0.3,0.4,0.8,0.4,1.5
		v4.2c0,0.7-0.1,1.2-0.4,1.5c-0.3,0.3-0.8,0.4-1.6,0.4h-6c-0.8,0-1.3-0.1-1.6-0.4c-0.3-0.3-0.4-0.8-0.4-1.5V77.3z M239.2,81.9h6.2
		v-5h-6.2V81.9z"/>
	<path class="st0" d="M250.4,83.4v-8h1.9v6.5h6.1v1.5H250.4z"/>
	<path class="st0" d="M262.3,75.4v6.5h5.4v-6.5h1.9v6.1c0,0.7-0.1,1.2-0.4,1.5c-0.3,0.3-0.8,0.4-1.6,0.4h-5.1
		c-0.8,0-1.3-0.1-1.6-0.4c-0.3-0.3-0.4-0.8-0.4-1.5v-6.1H262.3z"/>
	<path class="st0" d="M277.5,76.9v6.6h-1.9v-6.6h-3.7v-1.4h9.4v1.4H277.5z"/>
	<path class="st0" d="M283.5,83.4v-8h1.9v8H283.5z"/>
	<path class="st0" d="M288.4,77.3c0-0.8,0.1-1.3,0.4-1.5c0.3-0.3,0.8-0.4,1.6-0.4h6c0.8,0,1.3,0.1,1.6,0.4c0.3,0.3,0.4,0.8,0.4,1.5
		v4.2c0,0.7-0.1,1.2-0.4,1.5c-0.3,0.3-0.8,0.4-1.6,0.4h-6c-0.8,0-1.3-0.1-1.6-0.4c-0.3-0.3-0.4-0.8-0.4-1.5V77.3z M290.4,81.9h6.2
		v-5h-6.2V81.9z"/>
	<path class="st0" d="M301.6,83.4v-8h1.3l6.6,5.3v-5.3h1.7v8h-1.3l-6.6-5.4v5.4H301.6z"/>
	<path class="st0" d="M321.6,76.9h-5.3v1.7h5c0.8,0,1.3,0.1,1.6,0.4c0.3,0.3,0.4,0.8,0.4,1.5v1.1c0,0.7-0.1,1.2-0.4,1.5
		c-0.3,0.3-0.8,0.4-1.6,0.4h-5c-0.8,0-1.3-0.1-1.6-0.4c-0.3-0.3-0.4-0.8-0.4-1.5v-0.2l1.7-0.3v0.9h5.7v-1.8h-5
		c-0.8,0-1.3-0.1-1.6-0.4c-0.3-0.3-0.4-0.8-0.4-1.5v-0.9c0-0.7,0.1-1.2,0.4-1.5c0.3-0.3,0.8-0.4,1.6-0.4h4.6c0.7,0,1.3,0.1,1.6,0.4
		c0.3,0.2,0.5,0.7,0.5,1.4v0.2l-1.6,0.4V76.9z"/>
	<path class="st0" d="M328.7,80.5c0.3,0,0.4,0.2,0.4,0.7v1.5c0,0.3,0,0.5-0.1,0.6c-0.1,0.1-0.3,0.1-0.6,0.1h-1.6
		c-0.3,0-0.4-0.2-0.4-0.7v-1.5c0-0.3,0-0.5,0.1-0.6c0.1-0.1,0.3-0.1,0.6-0.1H328.7z"/>
	<path class="st0" d="M339.9,83.4v-9.8h9.7v1.7h-7.5v2.2h4.4v1.7h-4.4v2.4h7.6v1.8H339.9z"/>
	<path class="st0" d="M352.1,83.4l3.8-4.1l-3.9-3.9h2.5l2.6,2.6l2.5-2.6h2.2l-3.5,3.7l4.4,4.3h-2.6l-3-3l-2.7,3H352.1z"/>
	<path class="st0" d="M371.3,76.9h-5.1v5h5.1v-1.7l1.9,0v1.3c0,0.7-0.1,1.2-0.4,1.5c-0.3,0.3-0.8,0.4-1.6,0.4h-4.9
		c-0.8,0-1.3-0.1-1.6-0.4c-0.3-0.3-0.4-0.8-0.4-1.5v-4.2c0-0.7,0.1-1.2,0.4-1.5c0.3-0.3,0.8-0.4,1.6-0.4h4.9c0.8,0,1.3,0.1,1.6,0.4
		c0.3,0.3,0.4,0.8,0.4,1.5v1.1l-1.9,0V76.9z"/>
	<path class="st0" d="M376.1,83.4v-8h8.3v1.4H378v1.7h3.7V80H378v2h6.5v1.5H376.1z"/>
	<path class="st0" d="M387.1,83.4v-8h7c0.6,0,1.1,0.1,1.4,0.4c0.3,0.2,0.4,0.6,0.4,1.2v1.8c0,1-0.6,1.6-1.8,1.6h-5.1v3.1H387.1z
		 M393.2,76.8h-4.3v2.1h4.3c0.6,0,0.9-0.2,0.9-0.6v-0.8C394.1,77,393.8,76.8,393.2,76.8z"/>
	<path class="st0" d="M403,76.9v6.6h-1.9v-6.6h-3.7v-1.4h9.4v1.4H403z"/>
	<path class="st0" d="M409,83.4v-8h1.9v8H409z"/>
	<path class="st0" d="M414,77.3c0-0.8,0.1-1.3,0.4-1.5c0.3-0.3,0.8-0.4,1.6-0.4h6c0.8,0,1.3,0.1,1.6,0.4c0.3,0.3,0.4,0.8,0.4,1.5
		v4.2c0,0.7-0.1,1.2-0.4,1.5c-0.3,0.3-0.8,0.4-1.6,0.4h-6c-0.8,0-1.3-0.1-1.6-0.4c-0.3-0.3-0.4-0.8-0.4-1.5V77.3z M415.9,81.9h6.2
		v-5h-6.2V81.9z"/>
	<path class="st0" d="M427.1,83.4v-8h1.3l6.6,5.3v-5.3h1.7v8h-1.3l-6.6-5.4v5.4H427.1z"/>
	<path class="st0" d="M438.9,83.4l4.6-8h1.8l4.7,8h-2.1l-1-1.8h-5.1l-1,1.8H438.9z M442.5,80.2h3.6l-1.8-3.3L442.5,80.2z"/>
	<path class="st0" d="M451.7,83.4v-8h1.9v6.5h6.1v1.5H451.7z"/>
	<path class="st0" d="M477.5,75.4h-6.2v2.1h5.9c0.9,0,1.5,0.2,1.9,0.5c0.3,0.3,0.5,0.9,0.5,1.8v1.3c0,0.9-0.2,1.5-0.5,1.8
		c-0.3,0.3-1,0.5-1.9,0.5h-5.9c-0.9,0-1.5-0.2-1.9-0.5c-0.3-0.3-0.5-0.9-0.5-1.8v-0.3l1.9-0.4v1.2h6.7v-2.2h-5.9
		c-0.9,0-1.5-0.2-1.9-0.5c-0.3-0.3-0.5-0.9-0.5-1.8V76c0-0.9,0.2-1.5,0.5-1.8c0.3-0.3,1-0.5,1.9-0.5h5.4c0.9,0,1.5,0.2,1.8,0.5
		c0.3,0.3,0.5,0.9,0.5,1.7V76l-2,0.5V75.4z"/>
	<path class="st0" d="M483.2,83.4v-8h8.3v1.4h-6.4v1.7h3.7V80h-3.7v2h6.5v1.5H483.2z"/>
	<path class="st0" d="M494.2,83.4v-8h7c1.2,0,1.8,0.5,1.8,1.6v1.9c0,1-0.6,1.5-1.8,1.5h-1.1l3.7,3h-2.7l-3.3-3h-1.8v3H494.2z
		 M500.4,76.8h-4.3V79h4.3c0.6,0,0.9-0.2,0.9-0.7v-0.9C501.2,77,501,76.8,500.4,76.8z"/>
	<path class="st0" d="M509.6,83.4l-4.7-8h2.1l3.3,5.8l3.1-5.8h2l-4.5,8H509.6z"/>
	<path class="st0" d="M517.4,83.4v-8h1.9v8H517.4z"/>
	<path class="st0" d="M529.3,76.9h-5.1v5h5.1v-1.7l1.9,0v1.3c0,0.7-0.1,1.2-0.4,1.5c-0.3,0.3-0.8,0.4-1.6,0.4h-4.9
		c-0.8,0-1.3-0.1-1.6-0.4c-0.3-0.3-0.4-0.8-0.4-1.5v-4.2c0-0.7,0.1-1.2,0.4-1.5c0.3-0.3,0.8-0.4,1.6-0.4h4.9c0.8,0,1.3,0.1,1.6,0.4
		c0.3,0.3,0.4,0.8,0.4,1.5v1l-1.9,0V76.9z"/>
	<path class="st0" d="M534.2,83.4v-8h8.3v1.4h-6.4v1.7h3.7V80h-3.7v2h6.5v1.5H534.2z"/>
	<path class="st0" d="M547.4,80.5c0.3,0,0.4,0.2,0.4,0.7v1.5c0,0.3,0,0.5-0.1,0.6c-0.1,0.1-0.3,0.1-0.6,0.1h-1.6
		c-0.3,0-0.4-0.2-0.4-0.7v-1.5c0-0.3,0-0.5,0.1-0.6c0.1-0.1,0.3-0.1,0.6-0.1H547.4z"/>
</g>
<path class="st0" d="M52.5,3.5c0,0,26.7-6.3,26.9,11.3c0,0,2.2,16.9-32.3,32.9c0,0-31,15-12.3-14.2c0,0-42.6,42.4,8.8,32.9
	c0,0,43.4-12.6,48.8-38.1c0,0-9.5,22.6-37,27.3c0,0,45-17.3,34.4-45.3C89.8,10.4,84.2-7.4,52.5,3.5z"/>
<path class="st1" d="M21.8,6"/>
<path class="st2" d="M50.9,22.2c-38.7,13.3-38,38.5-38,38.5c0,18.2,18.7,13.8,18.7,13.8c-23.5,6.8-27-10.4-27-10.4
	c-6.5-31.3,31-43.6,31-43.6C-1.2,28,0.4,61.2,0.4,61.2C-5.2,21.6,45.9,8.5,45.9,8.5c6.1-1.6,13-2,13-2c5.5-0.5,8.4,2.5,8.7,6.1
	c0.3,3.5-3.5,7.2-7.4,7.5C60.2,20,55.6,20.6,50.9,22.2z"/>
</svg>
