<?xml version="1.0" encoding="utf-8"?>
<!-- Generator: Adobe Illustrator 24.0.1, SVG Export Plug-In . SVG Version: 6.00 Build 0)  -->
<svg version="1.1" id="svg2811" xmlns:svg="http://www.w3.org/2000/svg"
	 xmlns="http://www.w3.org/2000/svg" xmlns:xlink="http://www.w3.org/1999/xlink" x="0px" y="0px" viewBox="0 0 20 25"
	 style="enable-background:new 0 0 20 25;" xml:space="preserve">
<style type="text/css">
	.st0{fill:#FFFFFF;}
</style>
<g>
	<g>
		<path class="st0" d="M1.5,8.3c-0.4,0-0.8,0.1-1,0.4C0.1,9,0,9.4,0,9.8v6.1c0,0.4,0.1,0.8,0.4,1c0.3,0.3,0.6,0.4,1,0.4
			c0.4,0,0.8-0.1,1-0.4c0.3-0.3,0.4-0.6,0.4-1V9.8c0-0.4-0.1-0.7-0.4-1C2.2,8.5,1.9,8.3,1.5,8.3z"/>
		<path class="st0" d="M13.2,2.9l1-1.9c0.1-0.1,0-0.2-0.1-0.3c-0.1-0.1-0.2,0-0.3,0.1l-1,1.9C12,2.3,11,2.1,10,2.1
			c-1,0-2,0.2-2.9,0.6l-1-1.9C6.1,0.7,6,0.7,5.8,0.7C5.7,0.8,5.7,0.9,5.8,1l1,1.9C5.8,3.4,4.9,4.1,4.3,5C3.7,6,3.4,7,3.4,8.1h13.1
			C16.6,7,16.3,6,15.7,5C15,4.1,14.2,3.4,13.2,2.9z M7.4,5.6C7.3,5.7,7.2,5.7,7,5.7c-0.2,0-0.3-0.1-0.4-0.2C6.5,5.5,6.5,5.3,6.5,5.2
			c0-0.2,0.1-0.3,0.2-0.4C6.7,4.7,6.9,4.6,7,4.6c0.2,0,0.3,0.1,0.4,0.2C7.5,4.9,7.6,5,7.6,5.2C7.6,5.3,7.5,5.5,7.4,5.6z M13.4,5.6
			c-0.1,0.1-0.2,0.2-0.4,0.2c-0.2,0-0.3-0.1-0.4-0.2c-0.1-0.1-0.2-0.2-0.2-0.4c0-0.2,0.1-0.3,0.2-0.4c0.1-0.1,0.2-0.2,0.4-0.2
			c0.2,0,0.3,0.1,0.4,0.2c0.1,0.1,0.2,0.2,0.2,0.4C13.5,5.3,13.5,5.5,13.4,5.6z"/>
		<path class="st0" d="M3.5,18.1c0,0.4,0.2,0.8,0.5,1.1c0.3,0.3,0.7,0.5,1.1,0.5h1.1l0,3.2c0,0.4,0.1,0.8,0.4,1
			c0.3,0.3,0.6,0.4,1,0.4c0.4,0,0.8-0.1,1-0.4c0.3-0.3,0.4-0.6,0.4-1v-3.2h2v3.2c0,0.4,0.1,0.8,0.4,1s0.6,0.4,1,0.4
			c0.4,0,0.8-0.1,1-0.4s0.4-0.6,0.4-1v-3.2H15c0.4,0,0.8-0.2,1.1-0.5c0.3-0.3,0.5-0.7,0.5-1.1V8.6h-13V18.1z"/>
		<path class="st0" d="M18.5,8.3c-0.4,0-0.7,0.1-1,0.4c-0.3,0.3-0.4,0.6-0.4,1v6.1c0,0.4,0.1,0.8,0.4,1s0.6,0.4,1,0.4
			c0.4,0,0.8-0.1,1-0.4s0.4-0.6,0.4-1V9.8c0-0.4-0.1-0.8-0.4-1C19.3,8.5,18.9,8.3,18.5,8.3z"/>
	</g>
</g>
</svg>
