<?xml version="1.0" encoding="utf-8"?>
<!-- Generator: Adobe Illustrator 24.0.1, SVG Export Plug-In . SVG Version: 6.00 Build 0)  -->
<svg version="1.1" id="svg2811" xmlns:svg="http://www.w3.org/2000/svg"
	 xmlns="http://www.w3.org/2000/svg" xmlns:xlink="http://www.w3.org/1999/xlink" x="0px" y="0px" viewBox="0 0 709 871"
	 style="enable-background:new 0 0 709 871;" xml:space="preserve">
<style type="text/css">
	.st0{fill:#FFFFFF;}
</style>
<g id="g186" transform="matrix(54.85,0,0,-54.85,-2485.383,4815.859)">
	<path id="path188" class="st0" d="M56.1,79.4c0,2,1.6,3,1.7,3c-0.9,1.4-2.4,1.6-2.9,1.6c-1.2,0.1-2.4-0.7-3-0.7s-1.6,0.7-2.6,0.7
		c-1.3,0-2.6-0.8-3.3-2c-1.4-2.4-0.4-6,1-8c0.7-1,1.5-2,2.5-2c1,0,1.4,0.7,2.6,0.7c1.2,0,1.6-0.7,2.6-0.6c1.1,0,1.8,1,2.4,1.9
		c0.8,1.1,1.1,2.2,1.1,2.3C58.2,76.2,56.1,77,56.1,79.4"/>
</g>
<path id="path190" class="st0" d="M482.4,139.3c30.4-36.8,50.9-88,45.3-139c-43.8,1.8-96.8,29.2-128.2,66
	c-28.1,32.5-52.8,84.6-46.1,134.6C402.2,204.7,452,176.1,482.4,139.3"/>
</svg>
