<?xml version="1.0" encoding="utf-8"?>
<!-- Generator: Adobe Illustrator 24.0.1, SVG Export Plug-In . SVG Version: 6.00 Build 0)  -->
<svg version="1.1" id="Layer_1" xmlns="http://www.w3.org/2000/svg" xmlns:xlink="http://www.w3.org/1999/xlink" x="0px" y="0px"
	 viewBox="0 0 500 412" style="enable-background:new 0 0 500 412;" xml:space="preserve">
<style type="text/css">
	.st0{opacity:0.25;fill:#182F58;}
</style>
<path class="st0" d="M284,19.2c0,0,144.3-34,145.6,61.2c0,0,12.1,91.5-174.4,178.1c0,0-167.7,81.1-66.5-76.6
	c0,0-230.3,229.3,47.5,177.7c0,0,234.6-68.3,263.8-206.1c0,0-51.5,122.1-200.1,147.9c0,0,243.4-93.7,185.9-245.1
	C485.8,56.4,455.6-39.9,284,19.2z"/>
<path class="st0" d="M275.5,120.2C66.2,192.2,70,328.7,70,328.7c-0.1,98.6,100.9,74.6,100.9,74.6c-127.3,36.8-146-56-146-56
	C-10,178,192.6,111.3,192.6,111.3C-6.5,151.2,2.3,331,2.3,331C-28,116.9,248.4,45.7,248.4,45.7c33-8.6,70.5-10.6,70.5-10.6
	c29.6-2.9,45.6,13.7,47,32.8c1.4,19.2-18.7,38.8-40.2,40.3C325.7,108.2,300.9,111.4,275.5,120.2z"/>
</svg>
