<svg id="Layer_1" data-name="Layer 1" xmlns="http://www.w3.org/2000/svg" viewBox="0 0 148.67 122.47"><defs><style>.cls-1{fill:#00549e;}.cls-2{fill:none;stroke:#ee7d35;stroke-width:0.62px;}.cls-3{fill:#f78e1e;}</style></defs><title>havtech_swoosh</title><path class="cls-1" d="M104.49,28.29s42.9-10.12,43.3,18.19c0,0,3.6,27.19-51.87,52.94,0,0-49.86,24.1-19.77-22.76,0,0-68.48,68.16,14.13,52.83,0,0,69.74-20.29,78.44-61.27,0,0-15.32,36.31-59.5,44,0,0,72.36-27.86,55.28-72.86C164.5,39.34,155.51,10.71,104.49,28.29Z" transform="translate(-20.05 -22.58)"/><path class="cls-2" d="M55.08,32.19" transform="translate(-20.05 -22.58)"/><path class="cls-3" d="M102,58.31c-62.21,21.4-61.09,62-61.09,62,0,29.3,30,22.18,30,22.18-37.85,11-43.41-16.64-43.41-16.64C17.06,75.5,77.32,55.67,77.32,55.67,18.12,67.54,20.74,121,20.74,121c-9-63.67,73.18-84.82,73.18-84.82a122.86,122.86,0,0,1,21-3.16c8.8-.86,13.56,4.06,14,9.76s-5.55,11.54-12,12A86,86,0,0,0,102,58.31Z" transform="translate(-20.05 -22.58)"/></svg>