<?xml version="1.0" encoding="utf-8"?>
<!-- Generator: Adobe Illustrator 24.0.1, SVG Export Plug-In . SVG Version: 6.00 Build 0)  -->
<svg version="1.1" id="Layer_1" xmlns="http://www.w3.org/2000/svg" xmlns:xlink="http://www.w3.org/1999/xlink" x="0px" y="0px"
	 viewBox="0 0 1033.4 88.8" style="enable-background:new 0 0 1033.4 88.8;" xml:space="preserve">
<style type="text/css">
	.st0{fill:#004C97;}
	.st1{fill:none;stroke:#EE7D35;stroke-width:0.7103;}
	.st2{fill:#F68D2E;}
</style>
<g>
	<g>
		<g>
			<path class="st0" d="M125,59.6V9.5h11.6v19.4h36.4V9.5h11.8v50.1h-11.8V38h-36.4v21.6H125z"/>
			<path class="st0" d="M191.7,59.6l28.4-50.1h11.3l28.8,50.1h-13.1l-6-11h-31.8l-5.8,11H191.7z M214.2,39.5h22l-10.8-20.3
				L214.2,39.5z"/>
			<path class="st0" d="M277.1,59.6l-29-50.1h13.3l20.3,36.2l19.3-36.2h11.7l-27.6,50.1H277.1z"/>
			<path class="st0" d="M349.8,18.4v41.2h-11.6V18.4H315V9.5h57.8v8.9H349.8z"/>
			<path class="st0" d="M381.8,59.6V9.5h51.3v8.6h-39.7v11h23.1v8.6h-23.1v12.5h40.2v9.4H381.8z"/>
			<path class="st0" d="M487,18.4h-31.4v31.7H487V39.3l11.6,0v8.4c0,4.7-0.9,7.8-2.6,9.4c-1.7,1.6-5,2.4-9.8,2.4h-29.9
				c-4.8,0-8-0.8-9.8-2.4c-1.7-1.6-2.6-4.8-2.6-9.4V21.3c0-4.7,0.9-7.8,2.6-9.4c1.7-1.6,5-2.4,9.8-2.4h29.9c4.8,0,8,0.8,9.8,2.4
				c1.7,1.6,2.6,4.8,2.6,9.4v6.6l-11.6,0V18.4z"/>
			<path class="st0" d="M512.5,59.6V9.5h11.6v19.4h36.4V9.5h11.8v50.1h-11.8V38h-36.4v21.6H512.5z"/>
		</g>
	</g>
	<path class="st0" d="M60.6,4.1c0,0,30.8-7.3,31.1,13.1c0,0,2.6,19.5-37.2,38c0,0-35.8,17.3-14.2-16.3c0,0-49.1,48.9,10.1,37.9
		c0,0,50-14.6,56.3-44c0,0-11,26-42.7,31.5c0,0,51.9-20,39.7-52.3C103.6,12,97.2-8.5,60.6,4.1z"/>
	<path class="st1" d="M29.8,6.9"/>
	<path class="st2" d="M58.8,25.6C14.1,41,14.9,70.1,14.9,70.1c0,21,21.5,15.9,21.5,15.9C9.3,93.9,5.3,74.1,5.3,74.1
		C-2.1,38,41.1,23.7,41.1,23.7C-1.4,32.3,0.5,70.6,0.5,70.6C-6,24.9,53,9.8,53,9.8c7-1.8,15-2.3,15-2.3c6.3-0.6,9.7,2.9,10,7
		c0.3,4.1-4,8.3-8.6,8.6C69.5,23.1,64.2,23.8,58.8,25.6z"/>
	<g>
		<path class="st2" d="M610.1,58.9V21.3h43.5v5.9h-37.2v9.8h36.4v5.7h-36.4V53h37.7v5.9H610.1z"/>
		<path class="st2" d="M681.8,58.9h-7.3l-19.3-26.5h6.7L678.3,55l16.2-22.5h6.3L681.8,58.9z"/>
		<path class="st2" d="M723.2,59.5c-14.7,0-22.5-5.2-22.5-14.3c0-8.9,9.1-13.7,22.3-13.7c13.2,0,22.2,4.7,22.2,16.1h-38.4
			c0.7,4.2,6.5,7.3,16.8,7.3c8.9,0,12.8-2,14.5-4.2h6.7C743.2,54.8,737.3,59.5,723.2,59.5z M722.9,36.3c-10.1,0-15.7,3.2-16.2,7.1
			H739C739,40.2,733.8,36.3,722.9,36.3z"/>
		<path class="st2" d="M784.3,58.9c-0.4,0-0.5-1.7-0.5-13.2c0-5.8-3.5-8.6-11.8-8.6c-7.6,0-14.4,3.1-14.4,8.6v13.2h-6V32.4h5.8v6.4
			c2.2-4.8,9.7-7.1,16.6-7.1c12,0,15.9,5.4,15.9,12.9c0,13.6,0.1,14,0.4,14.4H784.3z"/>
		<path class="st2" d="M808.5,37.9c0,0,0,10.8,0,11c0,4.3,2,5.4,6.4,5.4c1.8,0,5.8-0.3,7.1-0.6v4.9c-1.5,0.4-5.2,0.9-8.9,0.9
			c-6.6,0-10.7-2.1-10.7-9.2c0-0.4,0-12.3,0-12.3h-8.3v-5.2h8.3c0.1-1.7,0.2-7,0.2-7l5.8-0.1c0,0,0,5.7,0,7.1h13.9v5.2H808.5z"/>
		<path class="st2" d="M846.9,59.5c-13.5,0-18.8-2-20.5-7.1c-0.2-0.6-0.3-1.3-0.3-1.8h5.9c0,0.3,0.1,1.1,0.5,1.4
			c1.3,1.7,5.2,2.6,14.5,2.6c11.6,0,13.8-1.6,13.8-3.5c0-2.3-1.9-3-12-3.4c-1.3,0-5.7-0.2-7.4-0.3c-10.9-0.5-14.6-3.2-14.6-7.7
			c0-5.2,6-8.1,18.1-8.1c11.5,0,17.4,1.8,19.5,6.6c0.3,0.7,0.5,1.6,0.5,2h-6c0-0.3-0.1-0.7-0.4-1.1c-1.1-1.5-4.6-2.6-13.1-2.6
			c-11.1,0-12.8,1.3-12.8,3.1s1.5,2.5,10.9,3c1.3,0,6.6,0.3,7.8,0.4c11.5,0.5,15.3,2.8,15.3,7.9C866.5,56.5,861,59.5,846.9,59.5z"/>
		<path class="st0" d="M915.6,58.9V43h-33.8v15.9h-6.4V21.3h6.4v15.5h33.8V21.3h6.4v37.6H915.6z"/>
		<path class="st0" d="M952.1,59.4c-14.4,0-23.6-5.6-23.6-17.4c0-1.2,0-20.8,0-20.8h6.5c0,0,0,21.3,0,21.6c0,6.5,5.6,10.8,17.5,10.8
			c10.1,0,16.9-3.9,16.9-10.8c0-0.3,0-21.6,0-21.6h6.4c0,0,0,20.6,0,21.7C975.7,53.7,967.2,59.4,952.1,59.4z"/>
		<path class="st0" d="M1016.4,58.9h-34.2V21.3h32.1c4.9,0,8.3,1.2,10.3,3.1c1.7,1.7,2.4,3.9,2.4,6.4c0,2-0.6,4-1.6,5.4
			c-0.9,1.3-2.3,2.4-4.2,2.7c3.2,0.2,6.1,1.4,7.8,3.1c1.5,1.5,2.3,4,2.3,6.2c0,2.3-0.5,4.7-1.7,6.4
			C1027.5,57.4,1023,58.9,1016.4,58.9z M1018.9,28.5c-1.3-1.2-3.4-1.5-6-1.5h-24.5V37h25.5c2.2,0,4.3-0.5,5.3-1.8
			c0.7-0.8,1.1-2.1,1.1-3.3C1020.4,30.7,1020,29.5,1018.9,28.5z M1024.6,47.6c0-1.2-0.3-2.1-1.2-3c-1.3-1.3-3.3-2-7.1-2h-27.8v10.7
			h27.6c4.2,0,6.4-0.9,7.8-2.7C1024.4,49.8,1024.6,48.8,1024.6,47.6z"/>
	</g>
</g>
</svg>
