<?xml version="1.0" encoding="utf-8"?>
<!-- Generator: Adobe Illustrator 24.0.1, SVG Export Plug-In . SVG Version: 6.00 Build 0)  -->
<svg version="1.1" id="Layer_1" xmlns="http://www.w3.org/2000/svg" xmlns:xlink="http://www.w3.org/1999/xlink" x="0px" y="0px"
	 viewBox="0 0 575 89" style="enable-background:new 0 0 575 89;" xml:space="preserve">
<style type="text/css">
	.st0{fill:#004C97;}
	.st1{fill:none;stroke:#EE7D35;stroke-width:0.7119;}
	.st2{fill:#F68D2E;}
</style>
<g>
	<g>
		<g>
			<path class="st0" d="M125.6,59.6V9.5h11.7v19.4h36.6V9.5h11.9v50.1h-11.9V38h-36.6v21.6H125.6z"/>
			<path class="st0" d="M192.6,59.6l28.5-50.1h11.3l28.9,50.1h-13.2l-6.1-11h-32l-5.9,11H192.6z M215.2,39.5h22.1l-10.8-20.3
				L215.2,39.5z"/>
			<path class="st0" d="M278.4,59.6L249.3,9.5h13.4l20.4,36.2l19.4-36.2h11.7l-27.7,50.1H278.4z"/>
			<path class="st0" d="M351.4,18.4v41.2h-11.7V18.4h-23.2V9.5h58.1v8.9H351.4z"/>
			<path class="st0" d="M383.6,59.6V9.5h51.5v8.6h-39.8v11h23.3v8.6h-23.3v12.5h40.3v9.4H383.6z"/>
			<path class="st0" d="M489.2,18.4h-31.5v31.7h31.5V39.3l11.7,0v8.4c0,4.7-0.9,7.8-2.6,9.4c-1.8,1.6-5,2.4-9.8,2.4h-30
				c-4.8,0-8.1-0.8-9.8-2.4c-1.8-1.6-2.6-4.8-2.6-9.4V21.3c0-4.7,0.9-7.8,2.6-9.4c1.8-1.6,5-2.4,9.8-2.4h30c4.8,0,8.1,0.8,9.8,2.4
				c1.8,1.6,2.6,4.8,2.6,9.4v6.6l-11.7,0V18.4z"/>
			<path class="st0" d="M514.8,59.6V9.5h11.7v19.4h36.6V9.5H575v50.1h-11.9V38h-36.6v21.6H514.8z"/>
		</g>
	</g>
	<path class="st0" d="M60.9,4.1c0,0,30.9-7.3,31.2,13.1c0,0,2.6,19.5-37.4,38c0,0-35.9,17.3-14.2-16.3c0,0-49.4,48.9,10.2,37.9
		c0,0,50.3-14.6,56.5-44c0,0-11,26-42.9,31.5c0,0,52.1-20,39.8-52.3C104.1,12,97.6-8.5,60.9,4.1z"/>
	<path class="st1" d="M29.9,6.9"/>
	<path class="st2" d="M59,25.6C14.2,41,15,70.1,15,70.1C15,91.1,36.6,86,36.6,86C9.4,93.9,5.3,74.1,5.3,74.1
		C-2.2,38,41.3,23.7,41.3,23.7C-1.4,32.3,0.5,70.6,0.5,70.6C-6,24.9,53.2,9.8,53.2,9.8c7.1-1.8,15.1-2.3,15.1-2.3
		c6.3-0.6,9.8,2.9,10.1,7c0.3,4.1-4,8.3-8.6,8.6C69.8,23.1,64.5,23.8,59,25.6z"/>
</g>
</svg>
