<?xml version="1.0" encoding="utf-8"?>
<!-- Generator: Adobe Illustrator 23.0.2, SVG Export Plug-In . SVG Version: 6.00 Build 0)  -->
<svg version="1.1" id="Layer_1" xmlns="http://www.w3.org/2000/svg" xmlns:xlink="http://www.w3.org/1999/xlink" x="0px" y="0px"
	 viewBox="0 0 564 56.8" style="enable-background:new 0 0 564 56.8;" xml:space="preserve">
<style type="text/css">
	.st0{fill:#FF9E18;}
	.st1{fill:#FFFFFF;}
	.st2{fill:#003DA6;}
</style>
<g>
	<path class="st0" d="M54.6,17.3c-1.4-3.4-3.5-6.4-6.1-9c-2.6-2.6-5.6-4.7-9-6.1C36,0.8,32.2,0,28.4,0c-3.8,0-7.6,0.8-11.1,2.2
		c-3.4,1.4-6.4,3.5-9,6.1c-2.6,2.6-4.7,5.6-6.1,9C0.8,20.8,0,24.6,0,28.4c0,3.8,0.8,7.6,2.2,11.1c1.4,3.4,3.5,6.4,6.1,9
		c2.6,2.6,5.6,4.7,9,6.1c3.5,1.5,7.2,2.2,11.1,2.2c3.8,0,7.6-0.8,11.1-2.2c3.4-1.4,6.4-3.5,9-6.1c2.6-2.6,4.7-5.6,6.1-9
		c1.5-3.5,2.2-7.2,2.2-11.1C56.8,24.6,56,20.8,54.6,17.3z M44.8,44.8c-4.4,4.4-10.2,6.8-16.4,6.8c-6.2,0-12-2.4-16.4-6.8
		c-4.4-4.4-6.8-10.2-6.8-16.4c0-6.2,2.4-12,6.8-16.4c4.4-4.4,10.2-6.8,16.4-6.8c6.2,0,12,2.4,16.4,6.8c4.4,4.4,6.8,10.2,6.8,16.4
		C51.6,34.6,49.2,40.4,44.8,44.8z"/>
	<path class="st1" d="M52.5,18.2c-1.3-3.1-3.2-5.9-5.6-8.3c-2.4-2.4-5.2-4.3-8.3-5.6c-3.2-1.4-6.6-2.1-10.2-2.1
		c-3.5,0-7,0.7-10.2,2.1c-3.1,1.3-5.9,3.2-8.3,5.6c-2.4,2.4-4.3,5.2-5.6,8.3c-1.4,3.2-2.1,6.6-2.1,10.2c0,3.5,0.7,7,2.1,10.2
		c1.3,3.1,3.2,5.9,5.6,8.3c2.4,2.4,5.2,4.3,8.3,5.6c3.2,1.4,6.6,2.1,10.2,2.1c3.5,0,7-0.7,10.2-2.1c3.1-1.3,5.9-3.2,8.3-5.6
		c2.4-2.4,4.3-5.2,5.6-8.3c1.4-3.2,2.1-6.6,2.1-10.2C54.5,24.9,53.9,21.4,52.5,18.2z M43.5,43.5c-4,4-9.4,6.3-15.1,6.3
		c-5.7,0-11.1-2.2-15.1-6.3c-4-4-6.3-9.4-6.3-15.1c0-5.7,2.2-11.1,6.3-15.1c4-4,9.4-6.3,15.1-6.3c5.7,0,11.1,2.2,15.1,6.3
		c4,4,6.3,9.4,6.3,15.1C49.8,34.1,47.5,39.5,43.5,43.5z"/>
	<path class="st2" d="M28.4,50.3c-12.1,0-21.9-9.8-21.9-21.9c0-12.1,9.8-21.9,21.9-21.9c12.1,0,21.9,9.8,21.9,21.9
		C50.3,40.5,40.5,50.3,28.4,50.3z"/>
	<path class="st1" d="M38.4,36.5c0.7-4.9,10.5-14.7,6.8-18c-2.9-2.4-9.7,4.2-13.7,9.1c1.4-3.6,3-6.8,0.7-8
		c-3.5-1.7-11.9,6.9-17.6,13.9c1.6-4.4,7.4-10.5,5.7-12.6c-2.6-2.7-10.7,1.4-15,4.4l-2.1,1.3L4.6,29c3.3-3.3,7.8-6.1,12.1-7
		c-0.8,4.4-10.8,17.4-8.9,19.9c3.6,3.4,11.5-14.3,22.1-19c-1.4,4.1-7.2,10.6-4.8,12.6c2.2,1.7,9.5-11,17.4-14.5l-7.4,13
		c-1.2,2.6-0.5,4.3,0.3,5.3c1.1,1.1,2.5,1.9,3.5,1C40.1,39.2,38.3,38.4,38.4,36.5z"/>
</g>
<g>
	<polygon class="st2" points="95.7,14.5 87.6,25.6 79.5,14.5 74.4,14.5 74.4,40.6 80.6,40.6 80.6,26.1 86.3,33.6 88.9,33.6 
		94.5,26.2 94.5,40.6 100.8,40.6 100.8,14.5 	"/>
	<path class="st2" d="M126,27.5c0-4.5-3-7.5-6.9-7.5c-3.8,0-6.8,3-6.8,7.5s3,7.5,6.8,7.5C123,35,126,32,126,27.5 M105.8,27.5
		c0-7.5,5.5-13.6,13.3-13.6c8,0,13.4,6.1,13.4,13.6s-5.5,13.7-13.4,13.7C111.2,41.2,105.8,35,105.8,27.5"/>
	<path class="st2" d="M136.9,33.6c0,0,1.5,1.4,4,1.4c3,0,4.1-1.5,4.1-4.8V14.5h6.3v17c0,5-3,9.7-10.3,9.7c-5,0-7.2-2.5-7.2-2.5
		L136.9,33.6z"/>
	<path class="st2" d="M176.3,27.5c0-4.5-3-7.5-6.9-7.5c-3.8,0-6.8,3-6.8,7.5s3,7.5,6.8,7.5C173.3,35,176.3,32,176.3,27.5
		 M156.1,27.5c0-7.5,5.5-13.6,13.3-13.6c8,0,13.4,6.1,13.4,13.6s-5.5,13.7-13.4,13.7C161.5,41.2,156.1,35,156.1,27.5"/>
	<rect x="198.5" y="10.7" class="st2" width="3.3" height="35.4"/>
	<path class="st2" d="M239.7,37.9c0,0-2.8,3.3-8.7,3.3c-7.9,0-13.1-6-13.1-13.6c0-7.7,5.2-13.7,13.1-13.7c5.9,0,8.7,3.3,8.7,3.3
		l-2.1,2.8c0,0-2.4-2.7-6.6-2.7c-5.6,0-9.4,4.6-9.4,10.3c0,5.7,3.9,10.2,9.4,10.2c4.1,0,6.6-2.7,6.6-2.7L239.7,37.9z"/>
	<path class="st2" d="M255.5,17.7h-6.7v11h7c3.6,0,6.1-1.7,6.1-5.4C261.9,19.5,259.4,17.7,255.5,17.7 M255.7,14.5
		c6.2,0,10,3.2,10,8.7c0,4.2-2.3,7-5.7,8.1v0.2l6.4,8.4v0.7h-3.9l-6.5-8.7h-7.1v8.7h-3.6V14.5H255.7z"/>
	<polygon class="st2" points="288.5,28.9 275.9,28.9 275.9,37.3 290.7,37.3 290.7,40.5 272.3,40.5 272.3,14.5 290.7,14.5 
		290.7,17.7 275.9,17.7 275.9,25.8 288.5,25.8 	"/>
	<path class="st2" d="M301.1,31.8h10.7l-5.3-12.9L301.1,31.8z M319.2,40.6h-3.8l-2.3-5.6h-13.3l-2.3,5.6h-3.7l11-26.1h3.4
		L319.2,40.6z"/>
	<polygon class="st2" points="318.9,14.5 339.4,14.5 339.4,17.7 330.9,17.7 330.9,40.5 327.3,40.5 327.3,17.7 318.9,17.7 	"/>
	<rect x="345" y="14.5" class="st2" width="3.6" height="26.1"/>
	<polygon class="st2" points="353.3,14.5 357.1,14.5 366,36.2 374.9,14.5 378.7,14.5 367.7,40.5 364.3,40.5 	"/>
	<polygon class="st2" points="399.7,28.9 387.1,28.9 387.1,37.3 401.9,37.3 401.9,40.5 383.5,40.5 383.5,14.5 401.9,14.5 
		401.9,17.7 387.1,17.7 387.1,25.8 399.7,25.8 	"/>
	<path class="st2" d="M422.4,17.7v19.6h5.1c5.6,0,9.9-3.6,9.9-9.8c0-6.2-4.3-9.8-9.9-9.8H422.4z M427.7,40.6h-8.9V14.5h8.9
		c8,0,13.3,5.1,13.3,13S435.7,40.6,427.7,40.6"/>
	<rect x="447.3" y="14.5" class="st2" width="3.6" height="26.1"/>
	<path class="st2" d="M478.1,29.2h-8.7v-3.2h12.4v2.2c0,7.8-4.4,12.9-11.8,12.9c-8,0-12.9-6-12.9-13.6c0-7.7,5.1-13.7,13-13.7
		c6.4,0,9.3,3.4,9.3,3.4l-2.1,2.7c0,0-2.5-2.7-7.1-2.7c-5.7,0-9.3,4.6-9.3,10.3c0,5.7,3.5,10.2,9.2,10.2c4.9,0,8-3.4,8-8.3V29.2z"/>
	<rect x="487.7" y="14.5" class="st2" width="3.6" height="26.1"/>
	<polygon class="st2" points="496.9,14.5 517.4,14.5 517.4,17.7 508.9,17.7 508.9,40.5 505.3,40.5 505.3,17.7 496.9,17.7 	"/>
	<path class="st2" d="M524.4,31.8H535l-5.3-12.9L524.4,31.8z M542.4,40.6h-3.8l-2.3-5.6h-13.3l-2.3,5.6h-3.7l11-26.1h3.4L542.4,40.6
		z"/>
	<polygon class="st2" points="547.2,14.5 547.2,40.6 564,40.6 564,37.3 550.8,37.3 550.8,14.5 	"/>
</g>
</svg>
