<?xml version="1.0" encoding="UTF-8"?>
<svg width="23px" height="19px" viewBox="0 0 23 19" version="1.1" xmlns="http://www.w3.org/2000/svg" xmlns:xlink="http://www.w3.org/1999/xlink">
    <!-- Generator: Sketch 62 (91390) - https://sketch.com -->
    <title>Group 8</title>
    <desc>Created with Sketch.</desc>
    <defs>
        <polygon id="path-1" points="0.439690514 0.0479684211 18.4716636 0.0479684211 18.4716636 16.1467139 0.439690514 16.1467139"></polygon>
        <polygon id="path-3" points="0 0.102838505 16.4602391 0.102838505 16.4602391 16.642042 0 16.642042"></polygon>
    </defs>
    <g id="Page-1" stroke="none" stroke-width="1" fill="none" fill-rule="evenodd">
        <g id="Events" transform="translate(-1444.000000, -443.000000)">
            <g id="Group-9" transform="translate(1407.000000, 425.000000)">
                <g id="Group-8" transform="translate(37.000000, 18.000000)">
                    <g id="Group-7">
                        <g id="Group-3" transform="translate(4.015906, 0.441505)">
                            <mask id="mask-2" fill="white">
                                <use xlink:href="#path-1"></use>
                            </mask>
                            <g id="Clip-2"></g>
                            <path d="M8.75658358,0.889716316 C8.75658358,0.889716316 15.2457864,-0.602199474 15.306025,3.57252158 C15.306025,3.57252158 15.8506823,7.58277947 7.45994779,11.3806058 C7.45994779,11.3806058 -0.0814225029,14.9351637 4.47010545,8.02281632 C4.47010545,8.02281632 -5.8884232,18.0756268 6.60706966,15.8157268 C6.60706966,15.8157268 17.1558519,12.8225953 18.4720652,6.77955316 C18.4720652,6.77955316 16.1538832,12.1343953 9.47091294,13.2650795 C9.47091294,13.2650795 20.4167679,9.15643737 17.8325321,2.51917421 C17.8325321,2.51917421 16.4736498,-1.70253632 8.75658358,0.889716316" id="Fill-1" fill="#FFFFFF" mask="url(#mask-2)"></path>
                        </g>
                        <g id="Group-6" transform="translate(0.000000, 1.909926)">
                            <mask id="mask-4" fill="white">
                                <use xlink:href="#path-3"></use>
                            </mask>
                            <g id="Clip-5"></g>
                            <path d="M12.3886698,3.84902526 C2.97889899,7.00417263 3.14806905,12.9914147 3.14806905,12.9914147 C3.14355116,17.3129779 7.68805127,16.2635463 7.68805127,16.2635463 C1.96287467,17.8773411 1.12204426,13.8083463 1.12204426,13.8083463 C-0.451689076,6.38352 8.66241057,3.45891474 8.66241057,3.45891474 C-0.291052819,5.20976211 0.104011977,13.0932253 0.104011977,13.0932253 C-1.2573803,3.70316211 11.1738581,0.584235789 11.1738581,0.584235789 C12.6602454,0.205872632 14.3444162,0.117277895 14.3444162,0.117277895 C15.6761912,-0.00949578947 16.3960424,0.717372632 16.457285,1.55682 C16.5185275,2.39675684 15.6179605,3.25823053 14.6476171,3.32528842 C14.6476171,3.32528842 13.535211,3.46478842 12.3886698,3.84902526" id="Fill-4" fill="#FFFFFF" mask="url(#mask-4)"></path>
                        </g>
                    </g>
                </g>
            </g>
        </g>
    </g>
</svg>