<?xml version="1.0" encoding="UTF-8"?>
<svg width="28px" height="24px" viewBox="0 0 28 24" version="1.1" xmlns="http://www.w3.org/2000/svg" xmlns:xlink="http://www.w3.org/1999/xlink">
    <!-- Generator: Sketch 54.1 (76490) - https://sketchapp.com -->
    <title>Path</title>
    <desc>Created with Sketch.</desc>
    <g id="Page-1" stroke="none" stroke-width="1" fill="none" fill-rule="evenodd">
        <g id="Home" transform="translate(-374.000000, -2632.000000)" fill="#004C97" fill-rule="nonzero">
            <g id="Group-11" transform="translate(0.000000, 2377.000000)">
                <g id="iconmonstr-twitter-1" transform="translate(374.000000, 255.000000)">
                    <path d="M28,3.03537736 C26.9698333,3.49764151 25.8626667,3.80896226 24.7006667,3.94929245 C25.8871667,3.23113208 26.7983333,2.09316038 27.2265,0.737028302 C26.117,1.40212264 24.8873333,1.88561321 23.5783333,2.14622642 C22.5318333,1.01768868 21.0373333,0.3125 19.3853333,0.3125 C15.6765,0.3125 12.9511667,3.81014151 13.7888333,7.44103774 C9.016,7.19929245 4.78333333,4.8879717 1.9495,1.375 C0.4445,3.98466981 1.169,7.39858491 3.72633333,9.12735849 C2.786,9.09669811 1.89933333,8.83608491 1.12583333,8.4009434 C1.06283333,11.0908019 2.97033333,13.6073113 5.733,14.1674528 C4.9245,14.3891509 4.039,14.4410377 3.13833333,14.2665094 C3.86866667,16.5731132 5.98966667,18.2511792 8.505,18.2983491 C6.09,20.2122642 3.04733333,21.067217 0,20.7040094 C2.54216667,22.3514151 5.56266667,23.3125 8.806,23.3125 C19.4716667,23.3125 25.4975,14.2075472 25.1335,6.04127358 C26.2558333,5.22169811 27.23,4.19929245 28,3.03537736 Z" id="Path"></path>
                </g>
            </g>
        </g>
    </g>
</svg>